<svg width="160" height="51" viewBox="0 0 160 51" fill="none" xmlns="http://www.w3.org/2000/svg">
<rect width="160" height="51" fill="#C4C4C4"/>
<rect width="160" height="51" fill="#313131"/>
<path d="M45.935 26.8936L51.575 35.9656H46.271L42.407 29.9176L40.223 31.8856L39.407 35.9656H34.727L38.087 19.1656H42.767L41.399 26.0296L48.983 19.1656H54.575L45.935 26.8936ZM56.1338 19.1656H60.8858L57.5258 35.9656H52.7738L56.1338 19.1656ZM70.0746 36.3016C68.3786 36.3016 66.8906 35.9976 65.6106 35.3896C64.3306 34.7656 63.3466 33.8936 62.6586 32.7736C61.9706 31.6536 61.6266 30.3656 61.6266 28.9096C61.6266 26.9896 62.0666 25.2616 62.9466 23.7256C63.8426 22.1896 65.0906 20.9896 66.6906 20.1256C68.2906 19.2616 70.1146 18.8296 72.1626 18.8296C73.7146 18.8296 75.0906 19.1096 76.2906 19.6696C77.4906 20.2136 78.3866 20.9896 78.9786 21.9976L75.5466 24.7336C74.7306 23.4216 73.4986 22.7656 71.8506 22.7656C70.7786 22.7656 69.8346 23.0216 69.0186 23.5336C68.2026 24.0296 67.5626 24.7256 67.0986 25.6216C66.6506 26.5016 66.4266 27.4936 66.4266 28.5976C66.4266 29.7336 66.7946 30.6456 67.5306 31.3336C68.2666 32.0216 69.2666 32.3656 70.5306 32.3656C72.1306 32.3656 73.4986 31.7176 74.6346 30.4216L77.4426 33.1816C76.5306 34.2856 75.4666 35.0856 74.2506 35.5816C73.0346 36.0616 71.6426 36.3016 70.0746 36.3016ZM89.8334 26.8936L95.4734 35.9656H90.1694L86.3054 29.9176L84.1214 31.8856L83.3054 35.9656H78.6254L81.9854 19.1656H86.6654L85.2974 26.0296L92.8814 19.1656H98.4734L89.8334 26.8936ZM100.032 19.1656H104.784L101.424 35.9656H96.6723L100.032 19.1656ZM124.125 19.1656L120.765 35.9656H116.853L111.309 26.7496L109.461 35.9656H104.805L108.165 19.1656H112.077L117.645 28.3576L119.469 19.1656H124.125Z" fill="#53C9C2"/>
</svg>
